<?xml version="1.0" encoding="UTF-8"?>
<svg id="Camada_2" data-name="Camada 2" xmlns="http://www.w3.org/2000/svg" viewBox="0 0 397.36 394.94">
  <defs>
    <style>
      .cls-1 {
        fill: #082df7;
      }
    </style>
  </defs>
  <g id="Camada_1-2" data-name="Camada 1">
    <path class="cls-1" d="m397.36.19v227.44c-.62.05-1.24.15-1.86.15-17.96.02-35.91.02-53.87.03-.5,0-1.04-.12-1.49.02-.31.1-.71.56-.72.86-.02,1.87.11,3.73.11,5.6.01,53.07.01,106.15.05,159.22,0,1.21-.43,1.43-1.52,1.43-22.87-.04-45.75-.05-68.62-.05-88.58,0-177.16,0-265.74,0-.92,0-1.83,0-2.75-.03-.71-.02-1.07-.29-.86-1.11.16-.63.2-1.31.2-1.97,0-110.64,0-221.28,0-331.92,0-.54-.01-1.08-.1-1.61-.41-2.54-.37-2.59,2.18-2.62.21,0,.42,0,.62,0,20.46,0,40.91-.02,61.37-.01,33.46,0,66.91,0,100.37.01,1.7,0,1.7,0,1.7-1.66,0-17.33,0-34.66,0-51.99,0-.53,0-1.06,0-1.68.57-.03,1.02-.08,1.47-.08,32.33.01,64.66.06,97,.03,23.16-.02,46.32-.17,69.48-.24,2.45,0,4.91.24,7.36.24,17.75.02,35.5.01,53.25,0,.79,0,1.58-.04,2.37-.06ZM62.03,330.94h1.72c69.96,0,139.91,0,209.87,0,1.81,0,1.81,0,1.81-1.8,0-35.45,0-70.91,0-106.36,0-1.97,0-2.02,2-1.88,2.59.18,5.18.67,7.76.63,15.26-.24,30.54.72,45.78-.57,2.19-.19,2.2-.07,2.2-2.18,0-51.33,0-102.66,0-153.99q0-2.56-2.53-2.56c-51.79,0-103.58,0-155.37,0-2.54,0-2.51,0-2.5,2.52.02,16.13.03,32.25.04,48.38,0,1.5-.02,2.99.01,4.49.02.81-.3,1.1-1.11,1.08-1.87-.06-3.75-.07-5.62-.07-33.87,0-67.75-.01-101.62-.02-2.73,0-2.43-.19-2.43,2.39,0,69.33,0,138.66,0,207.98,0,.58,0,1.16,0,1.96Z"/>
  </g>
</svg>