<svg width="207" height="50" viewBox="0 0 207 50" preserveAspectRatio="xMinYMid meet" fill="none" xmlns="http://www.w3.org/2000/svg">
<path d="M7.71181 17.4811L0.857727 24.3505L7.71181 31.2198L14.5659 24.3505L7.71181 17.4811Z" fill="#3C7577"/>
<path d="M20.2075 33.0717L11.8175 41.4803L20.2075 49.8889L28.5974 41.4803L20.2075 33.0717Z" fill="#3C7577"/>
<path d="M41.6823 20.9101L34.1176 28.4917L41.6823 36.0732L49.247 28.4917L41.6823 20.9101Z" fill="#3C7577"/>
<path d="M27.3763 0.140341L14.8831 12.6614L27.3763 25.1824L39.8695 12.6614L27.3763 0.140341Z" fill="#56B2B9"/>
<path d="M86.2884 36.0408H86.28L86.2733 36.0425L86.022 36.071H86.0119L86.0019 36.0744L85.7657 36.1231L85.7556 36.1248L85.7472 36.1281L85.5278 36.1953L85.5177 36.197L85.5077 36.2021L85.3033 36.2877L85.2915 36.2928L85.2798 36.2979L85.0922 36.4037L85.0821 36.4104L85.0721 36.4188L84.8995 36.5447L84.8895 36.5514L84.8811 36.5598L84.7236 36.7042L84.7135 36.7127L84.7051 36.7211L84.5661 36.8823L84.5577 36.8923L84.551 36.9041L84.4304 37.0837L84.4237 37.0922L84.417 37.1039L84.3148 37.3004L84.3097 37.3104L84.3064 37.3205L84.2226 37.5321L84.2193 37.5421L84.2159 37.5522L84.1506 37.7806L84.1473 37.789L84.1455 37.7991L84.0986 38.0459L84.0969 38.0543V38.0644L84.0701 38.3263L84.0684 38.333V38.3397L84.0586 38.618V38.6231V38.6265V41.0661V41.0812L84.0603 41.0963L84.0821 41.2524L84.0871 41.281L84.0989 41.3078L84.1274 41.3733L84.1358 41.3951L84.1492 41.4136L84.1894 41.469L84.2044 41.4892L84.2229 41.5059L84.2731 41.5496L84.2915 41.5647L84.3117 41.5748L84.3703 41.6067L84.3904 41.6184L84.4122 41.6251L84.4809 41.6453L84.5043 41.652L84.5278 41.6537L84.6065 41.6588H84.6199H84.6333L84.7104 41.6537L84.7338 41.652L84.7556 41.6453L84.826 41.6251L84.8477 41.6184L84.8678 41.6084L84.9282 41.5765L84.9483 41.5664L84.965 41.5513L85.0169 41.5076L85.0354 41.4925L85.0505 41.4724L85.0923 41.417L85.1074 41.3968L85.1175 41.3733L85.1459 41.3078L85.1543 41.291L85.1577 41.2743L85.1761 41.2004L85.1812 41.1819L85.1829 41.1618L85.188 41.0795V41.0728V41.0661V40.0721H87.9254V41.0594V41.0728L87.9271 41.0879L87.9488 41.2558L87.9522 41.2844L87.9639 41.3112L87.9924 41.3784L88.0024 41.4002L88.0159 41.4204L88.0544 41.4741L88.0711 41.4976L88.0946 41.516L88.1465 41.558L88.1649 41.5731L88.1867 41.5832L88.2487 41.6134L88.2688 41.6235L88.2906 41.6286L88.3643 41.6471L88.3844 41.6521L88.4028 41.6538L88.4883 41.6589H88.5017H88.5151L88.5972 41.6538L88.6173 41.6521L88.6374 41.6471L88.7094 41.6286L88.7312 41.6235L88.7513 41.6118L88.8116 41.5815L88.8351 41.5715L88.8535 41.5547L88.9037 41.5127L88.9238 41.4959L88.9406 41.4741L88.9791 41.4204L88.9925 41.4002L89.0026 41.3784L89.0311 41.3112L89.0428 41.2844L89.0461 41.2558L89.0679 41.0879L89.0696 41.0728V41.0594V38.6265V38.6231V38.6198L89.0612 38.3394V38.331L89.0595 38.3225L89.031 38.0589V38.0505L89.0293 38.0421L88.9824 37.7953L88.9807 37.7868L88.9773 37.7784L88.9137 37.5484L88.912 37.5366L88.9069 37.5266L88.8231 37.315L88.8198 37.3049L88.8147 37.2949L88.7125 37.0984L88.7058 37.0884L88.6992 37.0783L88.5802 36.9003L88.5735 36.8885L88.5651 36.8785L88.4261 36.7173L88.4177 36.7089L88.4093 36.7004L88.2535 36.556L88.2434 36.5476L88.2333 36.5392L88.0608 36.415L88.0507 36.4082L88.039 36.4015L87.8514 36.2974L87.8413 36.2924L87.8313 36.2873L87.6269 36.2L87.6168 36.1966L87.6051 36.1933L87.384 36.1261L87.3739 36.1228L87.3639 36.1194L87.1277 36.0724L87.1193 36.0707H87.1092L86.8562 36.0421L86.8495 36.0404H86.8411L86.5732 36.0307H86.5648H86.5564L86.2884 36.0408ZM111.371 36.0408H111.362L111.355 36.0425L111.104 36.071H111.094L111.084 36.0744L110.848 36.1231L110.838 36.1248L110.829 36.1281L110.61 36.1953L110.6 36.197L110.59 36.2021L110.385 36.2877L110.374 36.2928L110.364 36.2979L110.174 36.4037L110.163 36.4104L110.153 36.4188L109.98 36.5447L109.97 36.5514L109.96 36.5598L109.804 36.7042L109.796 36.7127L109.787 36.7211L109.648 36.8823L109.64 36.8923L109.633 36.9024L109.511 37.0821L109.504 37.0921L109.498 37.1039L109.395 37.3003L109.39 37.3104L109.387 37.3205L109.303 37.532L109.3 37.5421L109.296 37.5522L109.231 37.7805L109.228 37.7906L109.226 37.8007L109.181 38.0475L109.179 38.0542V38.0626L109.151 38.3246L109.149 38.333V38.3397L109.139 38.6184V38.6235V38.6268V41.0664V41.0832L109.141 41.0983L109.164 41.2545L109.169 41.283L109.181 41.3082L109.209 41.3737L109.218 41.3955L109.231 41.414L109.271 41.4694L109.285 41.4878L109.303 41.5029L109.352 41.5466L109.37 41.5651L109.394 41.5768L109.454 41.6087L109.474 41.6188L109.494 41.6255L109.563 41.6456L109.586 41.6524L109.61 41.6541L109.687 41.6591H109.7H109.714L109.792 41.6541L109.816 41.6524L109.838 41.6456L109.908 41.6255L109.93 41.6188L109.95 41.6087L110.01 41.5768L110.03 41.5667L110.047 41.5516L110.099 41.508L110.119 41.4912L110.136 41.4694L110.176 41.414L110.188 41.3972L110.196 41.3787L110.226 41.3132L110.236 41.2914L110.241 41.2696L110.258 41.1957L110.261 41.1806L110.263 41.1655L110.27 41.0832V41.0748V41.0663V40.0724H113.006V41.0596V41.0747L113.007 41.0899L113.031 41.2578L113.036 41.2846L113.046 41.3115L113.074 41.3787L113.084 41.4005L113.098 41.4206L113.136 41.4744L113.153 41.4979L113.177 41.5163L113.228 41.5583L113.247 41.5734L113.269 41.5835L113.331 41.6137L113.351 41.6238L113.371 41.6289L113.443 41.6473L113.463 41.6524L113.483 41.6541L113.569 41.6592H113.582H113.595L113.679 41.6541L113.699 41.6524L113.719 41.6473L113.791 41.6289L113.813 41.6238L113.833 41.612L113.894 41.5818L113.917 41.5717L113.935 41.5549L113.986 41.513L114.006 41.4962L114.023 41.4744L114.061 41.4206L114.076 41.3988L114.086 41.3753L114.113 41.3081L114.123 41.2829L114.126 41.2561L114.148 41.0882L114.15 41.0731V41.0596V38.6268V38.6234V38.6201L114.142 38.3397V38.3312L114.14 38.3228L114.111 38.0592V38.0525L114.11 38.0441L114.064 37.7973L114.063 37.7872L114.059 37.7771L113.994 37.5471L113.991 37.537L113.987 37.5286L113.905 37.317L113.902 37.3053L113.897 37.2952L113.795 37.0988L113.788 37.0887L113.781 37.0786L113.662 36.9006L113.656 36.8889L113.647 36.8788L113.508 36.7176L113.5 36.7092L113.491 36.7008L113.336 36.5564L113.325 36.548L113.315 36.5395L113.143 36.4153L113.131 36.4086L113.121 36.4019L112.932 36.2978L112.922 36.2927L112.912 36.2876L112.707 36.2003L112.697 36.197L112.686 36.1936L112.466 36.1265L112.456 36.1231L112.446 36.1198L112.21 36.0727L112.201 36.071H112.191L111.938 36.0425L111.932 36.0408H111.923L111.654 36.0307H111.645H111.637L111.371 36.0408ZM167.357 36.0425H167.347L167.338 36.0442L167.068 36.0778L167.058 36.0795L167.048 36.0812L166.792 36.1383L166.782 36.14L166.772 36.1434L166.529 36.224L166.519 36.2273L166.509 36.2324L166.279 36.3348L166.269 36.3399L166.259 36.345L166.043 36.4692L166.033 36.4759L166.023 36.4826L165.822 36.6304L165.813 36.6371L165.805 36.6438L165.616 36.815L165.607 36.8218L165.6 36.8302L165.429 37.0199L165.421 37.0283L165.414 37.0384L165.266 37.2416L165.261 37.25L165.254 37.2601L165.13 37.475L165.125 37.4834L165.12 37.4935L165.016 37.7235L165.011 37.7353L165.008 37.747L164.929 37.9905L164.925 37.9989L164.924 38.009L164.867 38.2658L164.865 38.2759L164.863 38.286L164.83 38.5563L164.828 38.5647V38.5748L164.816 38.8586V38.867V38.8754L164.828 39.1608V39.1709L164.83 39.1793L164.863 39.4497L164.865 39.4597L164.867 39.4698L164.924 39.7267L164.925 39.7368L164.929 39.7452L165.008 39.9887L165.011 40.0004L165.016 40.0122L165.12 40.2422L165.125 40.2506L165.13 40.2607L165.254 40.4773L165.261 40.4873L165.268 40.4974L165.416 40.6989L165.422 40.7073L165.429 40.7158L165.6 40.9055L165.607 40.9139L165.616 40.9206L165.805 41.0919L165.813 41.0986L165.822 41.1053L166.023 41.253L166.033 41.2597L166.043 41.2664L166.259 41.3924L166.269 41.3974L166.279 41.4025L166.509 41.5049L166.519 41.51L166.531 41.5134L166.773 41.5923L166.782 41.5956L166.792 41.5973L167.048 41.6544L167.058 41.6562L167.069 41.6579L167.338 41.6915L167.347 41.6932H167.357L167.64 41.7049H167.649H167.659L168.004 41.6881H168.015L168.027 41.6848L168.352 41.6344L168.364 41.6327L168.376 41.6293L168.682 41.5437L168.696 41.5404L168.707 41.5353L168.997 41.4161L169.009 41.411L169.021 41.4059L169.284 41.2582L169.296 41.2515L169.306 41.2431L169.538 41.0701L169.55 41.0617L169.56 41.0516L169.765 40.8535L169.775 40.8434L169.785 40.8317L169.957 40.61L169.974 40.5882L169.986 40.5613L170.026 40.4673L170.038 40.4388L170.041 40.4086L170.054 40.291L170.058 40.2591L170.053 40.2289L170.029 40.0963L170.022 40.0543L169.999 40.019L169.929 39.9065L169.912 39.8797L169.888 39.8578L169.837 39.8125L169.82 39.7991L169.8 39.7873L169.743 39.7554L169.721 39.7437L169.698 39.737L169.632 39.7185L169.612 39.7134L169.594 39.7117L169.522 39.705L169.502 39.7016L169.482 39.705L169.391 39.7134L169.368 39.7151L169.344 39.7236L169.264 39.7504L169.235 39.7589L169.21 39.7756L169.143 39.821L169.12 39.8361L169.101 39.8579L169.046 39.9217L169.043 39.9251L169.039 39.9301L168.905 40.1014L168.765 40.2408L168.759 40.2458L168.62 40.3516L168.458 40.4473L168.279 40.5212L168.103 40.5716H168.101L167.878 40.6051L167.871 40.6069L167.654 40.6186H167.645L167.479 40.6119L167.471 40.6102L167.301 40.5883L167.291 40.5866L167.283 40.5849L167.114 40.5463L166.981 40.5026L166.976 40.5009L166.835 40.4354L166.83 40.4321L166.698 40.3532L166.693 40.3498L166.555 40.2457L166.552 40.244L166.45 40.1483L166.445 40.1432L166.341 40.024L166.336 40.0173L166.245 39.8897L166.24 39.8813L166.158 39.7335L166.154 39.7285L166.092 39.5807L166.091 39.5774L166.042 39.4229L166.04 39.4145L166.009 39.2583V39.2566L165.985 39.0736V39.0669L165.977 38.8755V38.8671V38.8586L165.985 38.6689V38.6622L166.009 38.4792V38.4775L166.04 38.3213L166.042 38.3129L166.091 38.1584L166.092 38.1551L166.154 38.0073L166.158 38.0022L166.245 37.8461L166.327 37.7302L166.444 37.5942L166.449 37.5892L166.563 37.4817L166.57 37.4766L166.679 37.3944L166.683 37.3927L166.83 37.3037L166.835 37.3003L166.976 37.2348L166.981 37.2331L167.113 37.1895L167.293 37.1492L167.301 37.1475L167.459 37.1273H167.467L167.646 37.1189H167.655H167.665L167.859 37.1273L167.868 37.129L168.067 37.1576L168.262 37.2096L168.409 37.2667L168.411 37.2684L168.578 37.3591L168.722 37.4615L168.858 37.5874L168.863 37.5925L168.986 37.7369L168.987 37.7386L168.989 37.7403L169.046 37.8041L169.064 37.826L169.088 37.8411L169.157 37.8864L169.178 37.9015L169.205 37.91L169.284 37.9368L169.307 37.9452L169.332 37.947L169.423 37.9554L169.443 37.9587L169.463 37.9554L169.535 37.9487L169.553 37.947L169.574 37.9419L169.639 37.9234L169.659 37.9183L169.679 37.9083L169.738 37.878L169.756 37.868L169.773 37.8545L169.825 37.8126L169.843 37.7974L169.857 37.7807L169.9 37.7269L169.915 37.7085L169.925 37.69L169.955 37.6312L169.966 37.6111L169.971 37.5909L169.989 37.5255L169.996 37.5036L169.998 37.4818L170.003 37.4096L170.005 37.3861L170.001 37.3626L169.983 37.2417L169.976 37.2048L169.959 37.1712L169.902 37.0654L169.89 37.0436L169.874 37.0251L169.683 36.8085L169.674 36.7985L169.664 36.79L169.453 36.6037L169.443 36.5952L169.433 36.5885L169.202 36.429L169.19 36.4206L169.178 36.4139L168.93 36.2846L168.919 36.2796L168.907 36.2745L168.639 36.1737L168.627 36.1704L168.615 36.167L168.329 36.0948L168.317 36.0915L168.305 36.0898L168 36.0478L167.992 36.0461H167.982L167.658 36.0307H167.648H167.64L167.357 36.0425ZM179.437 36.0374H179.432L179.425 36.0391L179.199 36.0593H179.19L179.183 36.061L178.971 36.0946H178.962L178.953 36.0979L178.752 36.1466L178.744 36.1484L178.737 36.1501L178.548 36.2105L178.538 36.2139L178.529 36.2172L178.353 36.2928L178.345 36.2961L178.336 36.3012L178.172 36.3885L178.162 36.3936L178.153 36.4003L178.001 36.5027L177.991 36.5078L177.982 36.5145L177.846 36.627L177.838 36.6354L177.829 36.6438L177.712 36.7664L177.703 36.7748L177.697 36.7849L177.596 36.9158L177.586 36.9276L177.579 36.9394L177.499 37.0804L177.492 37.0921L177.487 37.1039L177.423 37.2533L177.418 37.2651L177.415 37.2785L177.369 37.4363L177.366 37.4481L177.364 37.4615L177.337 37.6294L177.336 37.6395L177.334 37.6512L177.324 37.8292V37.841V37.851L177.333 38.0206V38.0307L177.334 38.0408L177.356 38.1969L177.358 38.2087L177.361 38.2187L177.398 38.3648L177.402 38.3783L177.407 38.3917L177.459 38.5243L177.464 38.5378L177.471 38.5495L177.538 38.6704L177.545 38.6838L177.555 38.6956L177.637 38.8047L177.645 38.8165L177.655 38.8266L177.751 38.9239L177.763 38.9357L177.774 38.9458L177.887 39.0297L177.898 39.0364L177.908 39.0431L178.037 39.117L178.049 39.1237L178.061 39.1288L178.212 39.1926L178.22 39.1959L178.23 39.1993L178.401 39.2547L178.41 39.2564L178.418 39.2598L178.611 39.3051L178.619 39.3068L178.63 39.3085L179.08 39.3723L179.09 39.3741H179.1L179.635 39.4009H179.636H179.638L180.033 39.4144L180.338 39.4446L180.571 39.4933L180.735 39.5554L180.836 39.6242L180.9 39.6981L180.936 39.7888L180.95 39.9114L180.933 40.0608L180.908 40.1347V40.1364L180.891 40.1716L180.794 40.2992L180.667 40.4034L180.499 40.4923L180.28 40.5629L180.052 40.6015H180.047L179.754 40.6183H179.745L179.49 40.6082L179.251 40.5813H179.247L179.048 40.541L179.043 40.5393L178.847 40.4789L178.843 40.4771L178.656 40.3982L178.49 40.3025L178.483 40.2975L178.351 40.1967L178.21 40.059L178.208 40.0573L178.155 40.007L178.136 39.9902L178.114 39.9767L178.054 39.9415L178.036 39.9314L178.014 39.923L177.947 39.9011L177.924 39.8944L177.898 39.8927L177.823 39.886L177.805 39.8827L177.784 39.886L177.712 39.8927L177.694 39.8944L177.674 39.8995L177.609 39.918L177.585 39.9247L177.563 39.9364L177.506 39.9683L177.485 39.9801L177.466 39.9969L177.416 40.0422L177.403 40.0539L177.391 40.0691L177.349 40.1228L177.337 40.1396L177.327 40.1564L177.297 40.2151L177.282 40.2454L177.277 40.2773L177.253 40.4099L177.247 40.4452L177.253 40.4821L177.275 40.6131L177.28 40.6466L177.295 40.6769L177.357 40.7961L177.371 40.8213L177.391 40.8431L177.56 41.0278L177.57 41.0379L177.582 41.0479L177.78 41.2091L177.791 41.2192L177.805 41.2259L178.031 41.3636L178.043 41.372L178.056 41.3787L178.312 41.4895L178.324 41.4929L178.336 41.4962L178.621 41.5835L178.631 41.5869L178.641 41.5902L178.954 41.6524L178.964 41.6541H178.973L179.316 41.691L179.325 41.6927H179.333L179.705 41.7045H179.712H179.717L179.967 41.6978H179.974H179.979L180.213 41.6793L180.222 41.6776H180.229L180.45 41.644L180.457 41.6423L180.464 41.6406L180.67 41.5953L180.678 41.5935L180.687 41.5902L180.879 41.5314L180.889 41.5297L180.898 41.5263L181.077 41.4542L181.087 41.4491L181.096 41.4457L181.26 41.3601L181.27 41.355L181.279 41.3483L181.429 41.2493L181.44 41.2426L181.448 41.2359L181.582 41.1267L181.592 41.1183L181.601 41.1099L181.716 40.989L181.726 40.9789L181.733 40.9688L181.832 40.8379L181.841 40.8278L181.847 40.816L181.928 40.675L181.935 40.6616L181.942 40.6481L182.004 40.4953L182.007 40.4836L182.01 40.4718L182.056 40.309L182.059 40.2972L182.061 40.2855L182.088 40.1125L182.089 40.1008L182.091 40.0907L182.101 39.9077V39.8976V39.8859L182.092 39.7029V39.6928L182.091 39.6827L182.067 39.5148L182.066 39.5047L182.064 39.4963L182.027 39.3402L182.024 39.3267L182.018 39.3133L181.965 39.1706L181.96 39.1571L181.953 39.1454L181.884 39.0161L181.877 39.0027L181.867 38.9892L181.783 38.8751L181.775 38.8633L181.765 38.8532L181.666 38.7508L181.656 38.7407L181.644 38.7307L181.53 38.6417L181.519 38.6332L181.505 38.6248L181.373 38.5476L181.363 38.5425L181.351 38.5374L181.197 38.4703L181.187 38.4652L181.177 38.4619L181.001 38.4048L180.992 38.4031L180.984 38.3997L180.784 38.3527L180.778 38.351H180.771L180.55 38.314L180.544 38.3123H180.538L180.296 38.2854L180.289 38.2837H180.281L179.728 38.2602L179.349 38.2468L179.065 38.2199L178.827 38.1763L178.673 38.1225L178.58 38.0655L178.527 38.0067L178.495 37.9311L178.482 37.822L178.498 37.681L178.549 37.555L178.632 37.4409L178.76 37.3351L178.929 37.2411L179.127 37.1739L179.361 37.1336L179.643 37.1185H179.649L179.844 37.1252H179.847L180.018 37.1453L180.211 37.184L180.351 37.2259L180.357 37.2277L180.501 37.2881L180.655 37.3721L180.658 37.3738L180.779 37.4577L180.784 37.4611L180.9 37.5635L180.901 37.5652L180.903 37.5669L180.965 37.619L180.978 37.6307L180.995 37.6408L181.062 37.6794L181.084 37.6912L181.107 37.6996L181.179 37.7214L181.198 37.7265L181.218 37.7282L181.295 37.7366L181.317 37.74L181.339 37.7366L181.411 37.7299L181.432 37.7282L181.454 37.7215L181.52 37.7014L181.54 37.6963L181.558 37.6845L181.617 37.6526L181.635 37.6442L181.65 37.6308L181.704 37.5871L181.722 37.572L181.737 37.5536L181.779 37.4998L181.793 37.483L181.801 37.4629L181.831 37.4024L181.841 37.384L181.847 37.3638L181.865 37.2967L181.87 37.2782L181.872 37.2597L181.879 37.1875L181.882 37.159L181.877 37.1288L181.852 36.9877L181.847 36.9609L181.835 36.934L181.805 36.8702L181.796 36.8534L181.784 36.8383L181.743 36.7795L181.731 36.7611L181.714 36.746L181.548 36.5915L181.54 36.5831L181.528 36.5746L181.344 36.4403L181.334 36.4336L181.322 36.4269L181.118 36.3144L181.106 36.3077L181.094 36.3026L180.868 36.2103L180.858 36.2069L180.848 36.2036L180.603 36.1314L180.593 36.1297L180.583 36.1263L180.317 36.0743L180.308 36.0726H180.298L180.012 36.0423L180.005 36.0406H179.996L179.69 36.0307H179.683H179.676L179.437 36.0374ZM132.42 36.076L132.342 36.0827L132.323 36.0845L132.305 36.0895L132.236 36.108L132.216 36.1147L132.198 36.1231L132.136 36.1534L132.11 36.1651L132.089 36.1836L132.038 36.2272L132.025 36.2407L132.012 36.2558L131.97 36.3078L131.953 36.328L131.943 36.3532L131.914 36.4153L131.906 36.4321L131.901 36.4505L131.883 36.5211L131.878 36.5379L131.876 36.5563L131.869 36.6352L131.867 36.6554L131.871 36.6755L131.877 36.7427L131.879 36.7628L131.884 36.783L131.904 36.8502L131.913 36.877L131.928 36.9005L132.007 37.0298L132.015 37.0432L132.025 37.055L133.92 39.33V41.0594V41.0678V41.0763L133.926 41.1619L133.928 41.177L133.931 41.1921L133.948 41.2677L133.953 41.2895L133.963 41.3113L133.994 41.3768L134.002 41.3936L134.012 41.4104L134.052 41.4675L134.069 41.4893L134.091 41.5078L134.143 41.5514L134.161 41.5665L134.183 41.5783L134.245 41.6102L134.263 41.6203L134.285 41.6253L134.357 41.6455L134.379 41.6522L134.401 41.6539L134.483 41.659H134.496H134.51L134.588 41.6539L134.612 41.6522L134.635 41.6455L134.704 41.6253L134.724 41.6186L134.744 41.6086L134.804 41.5767L134.824 41.5666L134.841 41.5515L134.893 41.5078L134.913 41.491L134.928 41.4709L134.97 41.4138L134.985 41.3936L134.994 41.3718L135.022 41.3063L135.031 41.2895L135.034 41.2711L135.052 41.1955L135.057 41.1787L135.059 41.1619L135.066 41.0763V41.0679V41.0595V39.3217L136.976 37.0332L136.989 37.0181L136.999 36.9996L137.066 36.8787L137.085 36.8452L137.09 36.8082L137.111 36.6722L137.116 36.6487L137.115 36.6235L137.11 36.548L137.108 36.5278L137.101 36.506L137.083 36.4388L137.078 36.4153L137.064 36.3935L137.033 36.3348L137.022 36.3163L137.009 36.2995L136.966 36.2474L136.95 36.229L136.932 36.2155L136.88 36.1753L136.865 36.1635L136.848 36.1534L136.79 36.1232L136.759 36.1081L136.728 36.103L136.59 36.0795L136.558 36.0744L136.527 36.0778L136.446 36.0879L136.418 36.0912L136.389 36.103L136.314 36.1349L136.29 36.1449L136.27 36.1601L136.2 36.2121L136.183 36.2239L136.17 36.239L136.103 36.3112L136.099 36.3145L136.096 36.3196L134.496 38.2387L132.89 36.3129L132.888 36.3095L132.885 36.3062L132.821 36.2357L132.804 36.2189L132.786 36.2038L132.717 36.1551L132.697 36.1416L132.673 36.1332L132.6 36.103L132.575 36.0912L132.546 36.0879L132.466 36.0778L132.444 36.0744L132.42 36.076ZM97.1442 36.0827L97.119 36.0861L97.0973 36.0928L97.0219 36.1163L97.0018 36.1214L96.9833 36.1315L96.9146 36.1684L96.8929 36.1801L96.8744 36.1969L96.8141 36.2507L96.7974 36.2658L96.784 36.2842L96.7354 36.3497L96.7237 36.3665L96.7136 36.385L96.6784 36.4588L96.67 36.4773L96.665 36.4975L96.6432 36.5814L96.6381 36.5999L96.6364 36.62L96.6297 36.7141V36.7208V36.7292V41.066V41.0728V41.0795L96.6348 41.1617L96.6365 41.1819L96.6416 41.2003L96.66 41.2742L96.6651 41.2944L96.6735 41.3145L96.7036 41.3783L96.712 41.3968L96.7238 41.4119L96.764 41.4673L96.779 41.4875L96.7975 41.5042L96.8494 41.5496L96.8678 41.5647L96.8896 41.5764L96.9499 41.6083L96.9717 41.6201L96.9951 41.6268L97.0638 41.6453L97.0822 41.6503L97.1007 41.6521L97.1794 41.6588H97.1978H97.2163L97.295 41.6521L97.3134 41.6503L97.3318 41.6453L97.4005 41.6268L97.424 41.6201L97.4458 41.6083L97.5061 41.5764L97.5312 41.563L97.5513 41.5445L97.5999 41.4992L97.615 41.4841L97.6284 41.4673L97.6686 41.4119L97.6803 41.3934L97.6904 41.3733L97.7188 41.3095L97.7306 41.2826L97.7356 41.2524L97.7574 41.0962L97.7591 41.0811V41.066V38.0656L100.399 41.3901L100.406 41.3985L100.414 41.4086L100.497 41.4908L100.515 41.5076L100.537 41.5211L100.632 41.5798L100.654 41.5933L100.679 41.6017L100.788 41.637L100.81 41.6437L100.833 41.6454L100.956 41.6571L100.974 41.6588H100.992L101.078 41.6521L101.1 41.6504L101.121 41.6437L101.197 41.6219L101.219 41.6152L101.24 41.6034L101.307 41.5665L101.329 41.5547L101.348 41.538L101.405 41.4859L101.42 41.4725L101.431 41.4557L101.478 41.3936L101.493 41.3734L101.505 41.3499L101.537 41.276L101.544 41.2592L101.547 41.2408L101.567 41.1568L101.572 41.14L101.574 41.1216L101.58 41.0292V41.0225V41.0141V36.6688V36.6621V36.6554L101.575 36.5731L101.574 36.553L101.569 36.5345L101.55 36.4607L101.545 36.4422L101.538 36.4254L101.51 36.3616L101.5 36.3381L101.485 36.3196L101.443 36.2642L101.43 36.2456L101.413 36.2305L101.361 36.1852L101.342 36.1701L101.321 36.1583L101.26 36.1264L101.239 36.1147L101.215 36.1079L101.146 36.0895L101.128 36.0844L101.11 36.0827L101.031 36.076H101.012H100.994L100.915 36.0827L100.897 36.0844L100.878 36.0895L100.81 36.1079L100.785 36.1147L100.763 36.1281L100.704 36.16L100.682 36.1717L100.662 36.1885L100.612 36.2339L100.595 36.249L100.582 36.2674L100.542 36.3228L100.53 36.3413L100.52 36.3615L100.491 36.4253L100.48 36.4521L100.475 36.4824L100.453 36.6385L100.451 36.6536V36.6687V39.6607L97.826 36.3447L97.8193 36.3362L97.8109 36.3262L97.7288 36.2439L97.7087 36.2254L97.6869 36.212L97.5897 36.1532L97.5679 36.1415L97.5445 36.1331L97.4339 36.0978L97.4121 36.0911L97.3887 36.0894L97.2631 36.0776L97.2446 36.0759H97.2262L97.1442 36.0827ZM122.188 36.0827L122.169 36.0845L122.151 36.0895L122.079 36.108L122.056 36.1147L122.035 36.1248L121.973 36.1567L121.95 36.1684L121.93 36.1852L121.878 36.2306L121.861 36.2457L121.848 36.2641L121.806 36.3195L121.791 36.3397L121.781 36.3632L121.752 36.4287L121.744 36.4455L121.741 36.4639L121.722 36.5412L121.717 36.5596L121.715 36.5781L121.71 36.6637V36.6704V36.6771V41.014V41.0224V41.0308L121.717 41.1165L121.719 41.1333L121.724 41.15L121.742 41.2256L121.747 41.2508L121.759 41.2726L121.792 41.3381L121.804 41.3616L121.819 41.3801L121.866 41.4355L121.881 41.4506L121.896 41.464L121.953 41.5093L121.973 41.5244L121.995 41.5362L122.062 41.5681L122.082 41.5765L122.104 41.5816L122.179 41.6001L122.196 41.6051L122.213 41.6069L122.3 41.6136H122.308H122.317H125.662H125.677L125.694 41.6118L125.842 41.59L125.87 41.5849L125.897 41.5732L125.957 41.5463L125.977 41.5379L125.994 41.5245L126.046 41.4875L126.068 41.4724L126.085 41.4539L126.126 41.4053L126.143 41.3851L126.155 41.3633L126.183 41.3079L126.192 41.2894L126.198 41.2693L126.217 41.2055L126.222 41.1853L126.224 41.1652L126.23 41.0946L126.234 41.0745L126.23 41.0543L126.224 40.9821L126.222 40.962L126.217 40.9418L126.198 40.878L126.193 40.8596L126.183 40.8428L126.155 40.7857L126.143 40.7605L126.126 40.7404L126.085 40.6917L126.071 40.6766L126.053 40.6631L126.001 40.6228L125.982 40.6077L125.962 40.5976L125.902 40.5691L125.872 40.5557L125.842 40.5506L125.694 40.5288L125.677 40.527H125.662H122.855V36.6771V36.6637L122.853 36.6502L122.831 36.4806L122.828 36.4504L122.814 36.4219L122.786 36.3564L122.777 36.3362L122.766 36.3195L122.727 36.2641L122.712 36.2422L122.692 36.2238L122.643 36.1818L122.622 36.1633L122.597 36.1516L122.535 36.1213L122.513 36.1113L122.489 36.1046L122.417 36.0878L122.402 36.0844L122.385 36.0827L122.303 36.076H122.287H122.27L122.188 36.0827ZM156.705 36.0827L156.687 36.0845L156.668 36.0895L156.596 36.108L156.573 36.1147L156.553 36.1248L156.491 36.1567L156.467 36.1684L156.447 36.1852L156.395 36.2306L156.379 36.2457L156.365 36.2641L156.323 36.3195L156.308 36.3397L156.298 36.3632L156.27 36.4287L156.261 36.4455L156.258 36.4639L156.239 36.5412L156.234 36.5596L156.232 36.5781L156.227 36.6637V36.6704V36.6771V41.0593V41.066V41.0727L156.232 41.1584L156.234 41.1768L156.239 41.1953L156.258 41.2708L156.261 41.2893L156.27 41.3061L156.298 41.3716L156.307 41.3934L156.322 41.4136L156.364 41.4706L156.379 41.4908L156.399 41.5076L156.451 41.5512L156.469 41.5663L156.491 41.5781L156.553 41.61L156.571 41.6201L156.593 41.6251L156.665 41.6453L156.687 41.652L156.709 41.6537L156.791 41.6588H156.804H156.818L156.9 41.6537L156.92 41.652L156.94 41.6469L157.012 41.6285L157.034 41.6234L157.054 41.6116L157.114 41.5814L157.138 41.5713L157.156 41.5546L157.206 41.5126L157.226 41.4958L157.243 41.474L157.282 41.4202L157.295 41.4001L157.305 41.3783L157.333 41.3111L157.345 41.2842L157.349 41.2557L157.37 41.0878L157.372 41.0727V41.0592V36.677V36.6636L157.37 36.6502L157.349 36.4806L157.345 36.4504L157.332 36.4218L157.303 36.3563L157.295 36.3362L157.283 36.3194L157.245 36.264L157.228 36.2405L157.206 36.222L157.156 36.1801L157.137 36.1633L157.114 36.1532L157.054 36.123L157.032 36.1112L157.007 36.1045L156.935 36.0877L156.92 36.0844L156.903 36.0827L156.821 36.0759H156.804H156.787L156.705 36.0827ZM144.429 36.123L144.28 36.1449L144.251 36.1499L144.224 36.1617L144.164 36.1885L144.142 36.1986L144.124 36.2121L144.072 36.2507L144.054 36.2641L144.04 36.2809L143.998 36.3279L143.98 36.3481L143.966 36.3716L143.938 36.427L143.928 36.4488L143.921 36.4706L143.904 36.5344L143.901 36.5512L143.899 36.5697L143.893 36.6402L143.889 36.6687L143.894 36.6973L143.918 36.835L143.923 36.8669L143.938 36.8971L143.966 36.9525L143.978 36.9726L143.993 36.9911L144.035 37.0415L144.05 37.0616L144.072 37.0767L144.124 37.1153L144.141 37.1271L144.159 37.1372L144.219 37.1657L144.248 37.1792L144.278 37.1825L144.427 37.206L144.444 37.2094H144.461H145.903V41.0593V41.0677V41.0762L145.91 41.1618L145.912 41.1769L145.915 41.192L145.932 41.2676L145.937 41.2894L145.947 41.3112L145.977 41.3767L145.986 41.3952L145.999 41.4136L146.041 41.4707L146.056 41.4909L146.076 41.5077L146.128 41.5513L146.147 41.5664L146.168 41.5782L146.23 41.6101L146.249 41.6202L146.269 41.6252L146.339 41.6454L146.361 41.6521L146.384 41.6538L146.467 41.6589H146.48H146.493L146.577 41.6538L146.597 41.6521L146.617 41.647L146.689 41.6285L146.711 41.6235L146.731 41.6117L146.791 41.5815L146.815 41.5714L146.833 41.5546L146.884 41.5127L146.904 41.4959L146.92 41.474L146.959 41.4203L146.972 41.4002L146.982 41.3783L147.011 41.3112L147.023 41.2843L147.026 41.2558L147.048 41.0879L147.049 41.0728V41.0593V37.2094H148.492H148.509L148.525 37.206L148.674 37.1825L148.705 37.1792L148.733 37.1657L148.793 37.1372L148.812 37.1271L148.829 37.1154L148.881 37.0767L148.904 37.06L148.921 37.0381L148.961 36.9878L148.973 36.9726L148.981 36.9559L149.011 36.9005L149.025 36.877L149.032 36.8518L149.048 36.7863L149.054 36.7695V36.7527L149.06 36.6805L149.064 36.6604L149.06 36.6402L149.054 36.5697L149.052 36.5512L149.048 36.5344L149.032 36.4706L149.025 36.4455L149.011 36.4236L148.981 36.3682L148.971 36.3481L148.956 36.3313L148.916 36.2843L148.901 36.2658L148.881 36.2507L148.829 36.2121L148.81 36.1986L148.789 36.1886L148.728 36.1617L148.701 36.1499L148.673 36.1449L148.524 36.123L148.507 36.1213H148.492H144.461H144.446L144.429 36.123ZM86.5564 37.1187H86.5648L86.7357 37.1254L86.8898 37.1422L86.8982 37.1439L87.0222 37.1691L87.0306 37.1724L87.1546 37.2094L87.1596 37.2111L87.2937 37.2682L87.297 37.2699L87.3841 37.3186L87.3908 37.3237L87.4913 37.3975L87.5801 37.4815L87.6572 37.5755L87.6639 37.5839L87.7259 37.6813L87.7811 37.7888L87.7845 37.7972L87.8314 37.9198L87.8331 37.9282L87.8733 38.081L87.875 38.0843L87.9035 38.2438L87.9186 38.4017L87.9253 38.5964V38.6031V38.986H85.1879V38.6031V38.5964L85.1946 38.4017L85.2097 38.2438L85.2381 38.0843L85.2398 38.081L85.28 37.9282L85.2818 37.9198L85.3287 37.7972L85.332 37.7888L85.3823 37.6897L85.3856 37.6847L85.4577 37.5722L85.4627 37.5637L85.5247 37.4899L85.5314 37.4848L85.6219 37.3975L85.7224 37.3236L85.7291 37.3185L85.8162 37.2698L85.8195 37.2681L85.9569 37.2094L86.0708 37.1741L86.0759 37.1724L86.2149 37.1438L86.2233 37.1421L86.3775 37.1253L86.5483 37.1186L86.5564 37.1187ZM111.637 37.1187H111.645L111.815 37.1254H111.818L111.977 37.1439L112.104 37.169L112.111 37.1708L112.237 37.2094L112.242 37.2111L112.367 37.2648L112.476 37.3269L112.485 37.332L112.574 37.3992L112.662 37.4815L112.739 37.5755L112.746 37.5839L112.801 37.6695L112.805 37.6746L112.867 37.8022L112.87 37.8089L112.919 37.9399L112.954 38.0658L112.956 38.0709L112.982 38.2287L112.984 38.2388V38.2421L113.001 38.4V38.4033L113.006 38.5964V38.6015V38.986H110.27V38.6015V38.5964L110.275 38.4033V38.4L110.292 38.2438V38.2421L110.32 38.0843L110.322 38.0809L110.362 37.9281L110.364 37.9197L110.406 37.8089L110.409 37.8022L110.471 37.6746L110.475 37.6695L110.53 37.5839L110.537 37.5754L110.614 37.4814L110.702 37.3992L110.791 37.332L110.8 37.3269L110.909 37.2648L111.039 37.2094L111.153 37.1741L111.158 37.1724L111.299 37.1439H111.304L111.458 37.1254H111.461L111.629 37.1187L111.637 37.1187Z" fill="#E1E2E2"/>
<path d="M159.535 7.89399L159.515 7.89566L159.493 7.89734L158.916 7.94267L158.893 7.94435L158.868 7.94771L158.3 8.02494L158.278 8.02662L158.257 8.03166L157.699 8.13744L157.675 8.1408L157.654 8.14751L157.106 8.28183L157.086 8.28687L157.063 8.29358L156.527 8.45477L156.508 8.4598L156.488 8.46652L155.961 8.65289L155.942 8.66129L155.922 8.66968L155.409 8.88124L155.387 8.88964L155.367 8.89972L154.868 9.13813L154.85 9.14653L154.832 9.15493L154.345 9.41517L154.326 9.42524L154.308 9.437L153.838 9.71907L153.82 9.72915L153.804 9.73922L153.347 10.0431L153.33 10.0549L153.313 10.0666L152.871 10.3924L152.855 10.4041L152.839 10.4175L152.414 10.7617L152.397 10.7752L152.382 10.7886L151.975 11.153L151.962 11.1664L151.948 11.1781L151.558 11.5593L151.542 11.5727L151.529 11.5878L151.157 11.9857L151.143 12.0009L151.132 12.0143L150.779 12.429L150.765 12.4441L150.753 12.4609L150.42 12.8907L150.407 12.9075L150.395 12.9243L150.083 13.3692L150.073 13.3844L150.063 13.3995L149.772 13.8562L149.76 13.8729L149.75 13.8914L149.48 14.3615L149.47 14.3783L149.461 14.3951L149.213 14.877L149.204 14.8955L149.195 14.9139L148.971 15.4059L148.962 15.4243L148.955 15.4428L148.754 15.9431L148.745 15.9633L148.738 15.9834L148.562 16.4939L148.556 16.514L148.549 16.5341L148.399 17.053L148.393 17.0731L148.388 17.095L148.264 17.6188L148.259 17.6389L148.255 17.6591L148.157 18.1896L148.152 18.2132L148.148 18.235L148.078 18.7706L148.076 18.7924L148.074 18.8143L148.031 19.3549L148.029 19.3767L148.027 19.4002L148.012 19.9425V19.9644V19.9862L148.022 20.4076V20.4295L148.024 20.4496L148.054 20.8626L148.055 20.8845L148.059 20.9063L148.11 21.3143L148.111 21.3344L148.115 21.3546L148.183 21.7559L148.188 21.7777L148.194 21.7995L148.282 22.1924L148.285 22.2143L148.292 22.2344L148.399 22.6189L148.405 22.639L148.411 22.6592L148.538 23.0369L148.544 23.0571L148.553 23.0755L148.695 23.4433L148.704 23.4651L148.713 23.4852L148.873 23.8429L148.883 23.8631L148.894 23.8832L149.073 24.2324L149.081 24.2508L149.092 24.2693L149.287 24.6068L149.297 24.6253L149.309 24.6437L149.521 24.9711L149.532 24.9896L149.545 25.0081L149.773 25.3237L149.786 25.3422L149.8 25.359L150.045 25.6629L150.057 25.6797L150.071 25.6931L150.329 25.9853L150.344 26.0038L150.361 26.0205L150.636 26.2992L150.649 26.3126L150.662 26.3261L150.95 26.593L150.969 26.6082L150.986 26.6233L151.289 26.8751L151.305 26.8886L151.321 26.9003L151.637 27.1388L151.656 27.1522L151.676 27.1656L152.008 27.3889L152.024 27.4007L152.041 27.4107L152.385 27.619L152.405 27.6306L152.423 27.6408L152.78 27.8321L152.799 27.8422L152.815 27.8506L153.184 28.0269L153.204 28.037L153.224 28.0454L153.606 28.205L153.624 28.2117L153.643 28.2184L154.035 28.3611L154.053 28.3678L154.073 28.3745L154.477 28.5004L154.497 28.5071L154.517 28.5122L154.933 28.6197L154.954 28.6247L154.974 28.6298L155.4 28.7172L155.418 28.7205L155.437 28.7222L155.874 28.7927L155.894 28.7961L155.914 28.7994L156.36 28.8498L156.378 28.8515L156.399 28.8532L156.854 28.8834L156.874 28.8851H156.893L157.357 28.8953H157.377H157.397L157.981 28.8801L158.004 28.8784L158.03 28.8767L158.607 28.8297L158.628 28.828L158.651 28.8246L159.219 28.7473L159.241 28.7456L159.263 28.7405L159.823 28.6348L159.844 28.6314L159.864 28.6264L160.412 28.4937L160.435 28.487L160.458 28.482L160.995 28.3208L161.015 28.3141L161.037 28.3056L161.563 28.1175L161.581 28.1108L161.6 28.1041L162.114 27.8927L162.136 27.8842L162.154 27.8741L162.655 27.6374L162.676 27.6289L162.694 27.6189L163.182 27.3587L163.2 27.3486L163.217 27.3384L163.689 27.0564L163.708 27.0447L163.724 27.0329L164.184 26.7273L164.2 26.7173L164.215 26.7055L164.657 26.3815L164.676 26.3697L164.692 26.3563L165.118 26.0104L165.131 25.9987L165.145 25.9869L165.555 25.6242L165.571 25.6108L165.585 25.5957L165.977 25.2129L165.993 25.1995L166.006 25.1843L166.378 24.7864L166.39 24.773L166.403 24.7579L166.759 24.3432L166.771 24.328L166.783 24.3112L167.116 23.8814L167.128 23.868L167.139 23.8528L167.453 23.4096L167.465 23.3928L167.476 23.3743L167.77 22.916L167.782 22.8992L167.792 22.8807L168.061 22.4106L168.07 22.3955L168.079 22.3804L168.328 21.9002L168.338 21.88L168.349 21.8599L168.573 21.3679L168.58 21.3512L168.588 21.3327L168.791 20.8306L168.8 20.8105L168.807 20.7887L168.983 20.2782L168.99 20.2598L168.995 20.2414L169.146 19.7242L169.153 19.7024L169.158 19.6789L169.283 19.1534L169.288 19.1349L169.291 19.1164L169.392 18.5858L169.397 18.5607L169.4 18.5372L169.471 18.0015L169.472 17.9797L169.474 17.9579L169.518 17.4172L169.52 17.3954L169.521 17.3719L169.537 16.8279V16.8061V16.7843L169.526 16.3645V16.3427L169.525 16.3226L169.495 15.9095L169.493 15.8877L169.49 15.8659L169.439 15.4579L169.437 15.4377L169.434 15.4176L169.365 15.0163L169.36 14.9945L169.355 14.9726L169.266 14.5798L169.262 14.5579L169.255 14.5378L169.148 14.1533L169.143 14.1331L169.136 14.1113L169.011 13.7352L169.004 13.7168L168.997 13.6983L168.855 13.3289L168.846 13.3071L168.836 13.2869L168.676 12.9293L168.665 12.9091L168.655 12.889L168.476 12.5398L168.466 12.5196L168.454 12.4995L168.258 12.162L168.249 12.1452L168.238 12.1284L168.027 11.801L168.015 11.7825L168.001 11.7641L167.774 11.4484L167.76 11.4299L167.747 11.4131L167.502 11.1092L167.489 11.0925L167.474 11.0757L167.214 10.7835L167.201 10.7684L167.184 10.7516L166.909 10.4729L166.896 10.4595L166.883 10.446L166.595 10.1791L166.576 10.1623L166.558 10.1472L166.252 9.89532L166.238 9.88357L166.222 9.87182L165.906 9.6334L165.886 9.61829L165.866 9.60485L165.535 9.38323L165.517 9.37147L165.501 9.36139L165.155 9.1532L165.137 9.14313L165.119 9.13305L164.76 8.93996L164.742 8.92989L164.723 8.92149L164.353 8.74519L164.333 8.73512L164.315 8.72672L163.932 8.56722L163.913 8.5605L163.893 8.5521L163.497 8.40939L163.479 8.40268L163.459 8.39596L163.053 8.27172L163.035 8.26668L163.014 8.26164L162.598 8.15418L162.579 8.14915L162.559 8.14579L162.13 8.0568L162.111 8.05176L162.092 8.05008L161.654 7.97957L161.634 7.9762L161.614 7.97284L161.165 7.92247L161.145 7.9208L161.127 7.91912L160.669 7.8889L160.65 7.88722H160.631L160.163 7.8772H160.141H160.12L159.535 7.89399ZM190.653 8.7167L181.553 23.4449L180.542 9.10958L180.486 8.31038H179.686H178.609H177.686L177.753 9.23383L179.119 27.8052L179.178 28.6011H179.975H180.973H181.451L181.702 28.1948L190.719 13.6513L191.786 27.807L191.846 28.6011H192.642H193.667H194.144L194.396 28.1931L205.856 9.62168L206.667 8.31038H205.127H204.023H203.546L203.295 8.71838L194.222 23.4264L193.18 9.13477L193.122 8.35907L192.348 8.33724L191.407 8.31038L190.913 8.29695L190.653 8.7167ZM65.3843 8.94336L60.3367 27.5148L60.0419 28.6011H61.1643H62.2415H62.8965L63.0691 27.9681L68.1167 9.3967L68.4115 8.31038H67.2891H66.2119H65.5569L65.3843 8.94336ZM79.3913 8.94336L74.3454 27.5148L74.0505 28.6011H75.1729H76.1966H76.8516L77.0241 27.9681L80.9727 13.4683L87.6923 28.1008L87.9218 28.6011H88.4713H89.3659H90.0209L90.1934 27.9681L95.2394 9.3967L95.5342 8.31038H94.4118H93.3865H92.7332L92.559 8.94168L88.6087 23.3458L81.9176 8.81072L81.6881 8.31038H81.1386H80.2188H79.5639L79.3913 8.94336ZM106.668 8.94336L101.621 27.5148L101.326 28.6011H102.448H103.527H104.182L104.355 27.9681L106.623 19.6706H115.219H115.857L116.04 19.0577L116.34 18.057L116.671 16.9505H115.519H107.365L108.977 11.0572H118.125H118.799L118.958 10.4024L119.209 9.37487L119.471 8.31038H118.377H107.496H106.841L106.668 8.94336ZM130.65 8.94336L125.602 27.5148L125.307 28.6011H126.43H137.364H138.019L138.192 27.9664L138.463 26.9658L138.758 25.8812H137.636H128.927L133.382 9.39501L133.675 8.31038H132.554H131.477H130.822L130.65 8.94336ZM160.138 10.6408L160.47 10.6475L160.488 10.6493L160.833 10.6711L160.85 10.6728L161.185 10.7097L161.201 10.7115L161.568 10.7702L161.86 10.8307H161.862L162.219 10.923L162.222 10.9247L162.495 11.0087L162.514 11.0154L162.797 11.1178L162.805 11.1212L163.127 11.2572L163.371 11.373L163.385 11.3814L163.641 11.5191L163.653 11.5275L163.901 11.677L163.914 11.6854L164.15 11.8466L164.166 11.8583L164.422 12.0531L164.64 12.2361L164.651 12.2462L164.832 12.4174L164.834 12.4192L165.064 12.6576L165.067 12.6609L165.231 12.8473L165.236 12.854L165.414 13.079L165.424 13.0941L165.439 13.1126L165.6 13.3426L165.608 13.3544L165.752 13.5861L165.763 13.6012L165.9 13.848L165.907 13.8597L166.019 14.0847V14.0864L166.155 14.3987L166.257 14.6657L166.264 14.6842L166.343 14.9327V14.9344L166.427 15.2416L166.495 15.5573L166.497 15.569L166.547 15.8763L166.548 15.883L166.582 16.1567V16.1668L166.606 16.5042L166.608 16.5211L166.614 16.8316L166.602 17.2951V17.3018L166.571 17.6996L166.516 18.1379L166.512 18.1546L166.437 18.5761L166.433 18.5913L166.328 19.0412L166.326 19.0496L166.204 19.4777V19.4811L166.075 19.864L165.9 20.3072L165.896 20.3173L165.716 20.727L165.715 20.7287L165.532 21.093L165.525 21.1048L165.312 21.4859L165.299 21.5061L165.292 21.5195L165.076 21.867L165.067 21.8805L165.053 21.9006L164.817 22.2398L164.522 22.631L164.263 22.945L164.256 22.9517L163.931 23.3059L163.64 23.5997L163.621 23.6165L163.61 23.6283L163.278 23.9288L163.276 23.9305L162.96 24.1925L162.577 24.4796L162.566 24.488L162.199 24.7348L162.19 24.7415L161.842 24.9564L161.825 24.9665L161.445 25.173L161.431 25.1797L161.007 25.3829L160.997 25.388L160.615 25.5492L160.596 25.5559L160.577 25.5643L160.169 25.712L159.747 25.8397L159.739 25.8414L159.275 25.9572L158.808 26.0462L158.801 26.0479L158.378 26.105L158.367 26.1067L157.909 26.1453H157.895L157.401 26.1588H157.382L157.035 26.1503L156.696 26.1285L156.685 26.1268L156.32 26.0848L156.306 26.0831L155.976 26.0311L155.961 26.0277L155.633 25.9572L155.348 25.8833L155.339 25.88L155.037 25.7876L155.019 25.7809L154.713 25.6701L154.696 25.6634L154.445 25.556L154.438 25.5526L154.139 25.4065L154.127 25.4014L153.892 25.2738L153.88 25.2654L153.614 25.1025L153.596 25.0924L153.379 24.943L153.364 24.9313L153.349 24.9212L153.144 24.7667L153.133 24.7567L152.884 24.5451L152.698 24.3721L152.692 24.3671L152.469 24.1354L152.463 24.1287L152.297 23.9372L152.094 23.6804L152.087 23.672L151.943 23.4688L151.93 23.4486L151.92 23.4336L151.77 23.1951L151.762 23.1833L151.623 22.9365L151.616 22.9248L151.502 22.6981L151.495 22.683L151.383 22.4278L151.266 22.1206L151.261 22.1054L151.179 21.8536L151.173 21.8368L151.088 21.5262L151.086 21.5178L151.029 21.2609L151.026 21.2441L150.97 20.9116V20.9099L150.938 20.6329L150.913 20.2837L150.912 20.2702L150.905 19.9697L150.917 19.5399V19.5281L150.952 19.0715L151.012 18.6165V18.6131L151.082 18.2152L151.086 18.2034L151.191 17.7433L151.193 17.7382L151.305 17.3454L151.444 16.9256L151.451 16.9072L151.622 16.4706L151.79 16.0945L151.792 16.0928L152.003 15.668L152.008 15.6579L152.207 15.302L152.221 15.2819L152.228 15.2684L152.444 14.9209L152.452 14.9074L152.465 14.8873L152.7 14.5498L152.996 14.1586L153.277 13.8228L153.285 13.8127L153.561 13.5105L153.57 13.5021L153.88 13.1915L153.897 13.1763L153.91 13.1629L154.243 12.8624L154.561 12.5988L154.955 12.3033L155.294 12.0749L155.714 11.8197L155.716 11.818L156.076 11.6215L156.089 11.6148L156.483 11.4251L156.497 11.42L156.931 11.2387L156.942 11.2336L157.359 11.0842L157.372 11.0791L157.795 10.9515L157.813 10.9465L158.217 10.8474L158.228 10.8457L158.706 10.755L158.72 10.7517L159.167 10.6912L159.611 10.6543H159.62L160.12 10.6408L160.138 10.6408Z" fill="#E1E2E2"/>
</svg>
